Coordinates
version=1
nRows=19
nColumns=33
inDegrees=yes

Units are S.I. units (second, meters, Newtons, ...)
Angles are in degrees.

endheader
time	ground_thorax_rot_x	ground_thorax_rot_y	ground_thorax_rot_z	ground_thorax_tx	ground_thorax_ty	ground_thorax_tz	clav_prot_r	clav_elev_r	scapula_abduction_r	scapula_elevation_r	scapula_upward_rot_r	scapula_winging_r	shoulder_elv_r	plane_of_elev_r	axial_rot_r	elbow_flexion_r	pro_sup_r	wrist_flex_r	wrist_dev_r	clav_prot_l	clav_elev_l	scapula_abduction_l	scapula_elevation_l	scapula_upward_rot_l	scapula_winging_l	shoulder_elv_l	plane_of_elev_l	axial_rot_l	elbow_flexion_l	pro_sup_l	wrist_flex_l	wrist_dev_l
      3.29000000	     -3.74114971	      2.08993055	      9.96696372	     -0.10192530	      1.02623242	      0.00851283	     17.00171604	     -8.79381934	     45.00000000	    -10.56049549	     26.55715924	    -15.30244803	     -4.82365916	    -51.82778232	    117.75860691	    -35.80784799	   -137.62045213	      1.22423416	      0.26810790	     26.25465838	    -11.67854785	    -39.58914898	     -4.12425895	    -22.28392068	     13.73996298	     58.65432628	      2.38548682	     14.85032453	     12.28851762	     26.84764903	     13.68172657	     -7.68405403
      3.30000000	     -3.72080474	      2.05188766	      9.95016762	     -0.10187414	      1.02629657	      0.00850709	     17.00597313	     -8.79056902	     45.00000000	    -10.55673684	     26.54718981	    -15.30021768	     -4.80945550	    -51.86518271	    117.71908713	    -35.78687429	   -137.64059384	      1.24868939	      0.25233743	     26.24969120	    -11.64772535	    -39.58346719	     -4.15807695	    -22.29933717	     13.74091855	     58.68940423	      2.34730542	     14.83789122	     12.29122267	     26.84686367	     13.66687911	     -7.68906219
      3.31000000	     -4.11479049	      1.97258358	      9.96457203	     -0.10160993	      1.02734651	      0.00833324	     16.99707299	     -9.72615806	     45.00000000	    -11.35831406	     26.63868749	    -14.76720798	     -5.36821531	    -52.14436652	    116.41565156	    -35.01397647	   -140.22436105	      4.38829720	     -1.28702411	     25.72658306	    -11.71722375	    -38.66992514	     -4.39769367	    -22.88828553	     13.12918345	     59.61562456	      2.23351614	     13.23782382	     12.34347095	     26.28200840	     12.60852252	     -8.30607975
      3.32000000	     -4.08149911	      1.96790407	      9.94091772	     -0.10185570	      1.02736596	      0.00835746	     16.99331199	     -9.70497038	     44.98294664	    -11.33626232	     26.62109716	    -14.77312482	     -5.35574382	    -52.20349073	    116.40373902	    -34.99943547	   -140.23226128	      4.38526531	     -1.29076154	     25.72027988	    -11.67255215	    -38.66615309	     -4.43738723	    -22.89230974	     13.14263390	     59.64174448	      2.18986334	     13.24174387	     12.34002599	     26.27701419	     12.60755765	     -8.30645894
      3.33000000	     -4.02868243	      1.84271276	     10.05705959	     -0.10195197	      1.02670494	      0.00827129	     16.93892056	     -9.52686065	     45.00000000	    -11.22146872	     26.75420227	    -14.86190283	     -5.60655951	    -52.49536699	    116.74315515	    -35.08734993	   -140.77786630	      4.53349202	     -1.37672992	     25.61008726	    -11.37475031	    -38.51048352	     -4.78146492	    -23.08433004	     13.11603418	     59.43507912	      2.01538047	     13.18007710	     13.16156237	     25.87853994	     12.65187872	     -8.59514227
      3.34000000	     -3.87023436	      1.78448704	     10.19072857	     -0.10212754	      1.02650357	      0.00835777	     17.01027623	     -9.38291510	     45.00000000	    -11.05654950	     26.58015662	    -14.97336233	     -5.76129232	    -52.63266983	    116.94283073	    -34.99829764	   -144.73621213	      5.17904218	     -2.08430489	     25.10139015	    -11.45852565	    -37.69277087	     -4.57518820	    -22.72860714	     12.61150404	     59.24463514	      1.41071135	     12.27573710	     13.18725883	     23.90106945	     13.12154248	     -9.05145297
      3.35000000	     -3.85166649	      1.87035562	     10.15237332	     -0.10283288	      1.02626859	      0.00827965	     17.02738626	     -9.35277747	     45.00000000	    -11.02254434	     26.54069897	    -14.99395868	     -5.69986898	    -52.75747528	    116.90682244	    -35.03801618	   -144.76988038	      5.19145763	     -2.11307375	     25.07267347	    -11.38280796	    -37.65475294	     -4.63624196	    -22.72386886	     12.60403120	     59.29429814	      1.39125750	     12.31052410	     13.32763166	     23.87300582	     13.09758242	     -9.06959127
      3.36000000	     -3.79151436	      1.81004673	     10.16233039	     -0.10300431	      1.02578140	      0.00834804	     17.16032436	     -9.38108708	     45.00000000	    -10.96815979	     26.24057133	    -15.03350824	     -5.89039529	    -52.95512916	    116.87797839	    -35.75051248	   -145.19270662	      5.43808646	     -2.26704234	     24.87007596	    -11.22238687	    -37.32237976	     -4.89703240	    -22.97338289	     12.43373663	     59.30097569	      1.18117088	     12.55811839	     14.40354722	     23.62387709	     12.96404454	     -9.25931611
      3.37000000	     -3.72151626	      1.79597075	     10.34752643	     -0.10348213	      1.02564107	      0.00833088	     17.35005871	     -9.52938233	     45.00000000	    -10.98280423	     25.81955700	    -15.02341922	     -6.03654358	    -53.21508854	    116.73624719	    -36.24757503	   -146.27014785	      5.66711281	     -2.40013720	     24.53547717	    -11.26865568	    -36.75024796	     -4.96239062	    -23.16372588	     12.05992322	     59.34032395	      0.89320167	     12.61514717	     14.96827921	     23.34259278	     12.91615388	     -9.37032384
      3.38000000	     -3.65862791	      1.83785267	     10.40076857	     -0.10396083	      1.02516895	      0.00845121	     17.35502962	     -9.51830016	     44.77425965	    -10.88866575	     25.47745051	    -14.97239708	     -6.24601490	    -53.33542718	    116.66965722	    -36.92031112	   -146.92915528	      5.88285083	     -2.47995369	     24.27076158	    -11.21066764	    -36.31317564	     -5.08406586	    -23.29133985	     11.80833037	     59.40425160	      0.71456766	     12.81476864	     15.74958368	     23.16246907	     12.85411916	     -9.54946357
      3.39000000	     -3.58786843	      1.91791706	     10.52525405	     -0.10441938	      1.02483260	      0.00854674	     17.33995658	     -9.55851688	     44.44300040	    -10.81148134	     25.03077570	    -14.85554446	     -6.49638711	    -53.46909732	    116.53953204	    -37.65817885	   -147.70201488	      6.09628658	     -2.54301011	     23.96961035	    -11.21113823	    -35.80413292	     -5.17867841	    -23.46491688	     11.49371649	     59.44218366	      0.50366060	     13.01868077	     16.55204098	     23.04393841	     12.79060240	     -9.75545726
      3.40000000	     -3.52770647	      2.01076596	     10.61038411	     -0.10489198	      1.02451731	      0.00866445	     17.29815820	     -9.62212185	     44.05672857	    -10.74849054	     24.56569264	    -14.70038442	     -6.76552138	    -53.59740064	    116.40546448	    -38.50968464	   -148.53593826	      6.31570320	     -2.59452977	     23.65597127	    -11.21031377	    -35.27401788	     -5.28028402	    -23.64986292	     11.16660430	     59.52462656	      0.30053346	     13.23051454	     17.44481747	     22.99936200	     12.70913105	     -9.99746231
      3.41000000	     -3.60872526	      1.99826928	     10.52027623	     -0.10491591	      1.02536270	      0.00845960	     17.14736554	    -10.62479077	     43.35889559	    -11.44214462	     23.96709438	    -13.87427142	     -6.84439541	    -54.16579702	    116.60217850	    -39.56771779	   -153.26167526	      6.53537086	     -2.64437743	     22.66349708	    -11.47657904	    -33.58634519	     -5.19550244	    -23.86426509	     10.09087295	     60.34507615	     -0.06265431	     12.66703003	     18.20220632	     23.79809445	     12.72223500	    -10.59148718
      3.42000000	     -3.49348535	      2.07560591	     10.61697285	     -0.10545574	      1.02475079	      0.00865418	     17.06776574	    -10.43231380	     42.95049404	    -11.16995315	     23.53143420	    -13.84842547	     -7.16655143	    -54.23245494	    116.62004983	    -40.51874312	   -153.50723449	      6.79667883	     -2.80554078	     22.43717114	    -11.32208248	    -33.21917369	     -5.41210574	    -24.02271667	      9.90780823	     60.16054465	     -0.17947016	     13.30050407	     19.27897390	     23.71179557	     12.61280154	    -10.81952600
      3.43000000	     -3.38749074	      2.16955823	     10.73836961	     -0.10601511	      1.02431335	      0.00889337	     17.01368750	    -10.32956403	     42.49189889	    -10.93691526	     22.96723316	    -13.76415566	     -7.52091348	    -54.29852826	    116.48029999	    -41.60678284	   -153.88125793	      7.05663856	     -2.92182175	     22.19183939	    -11.25185652	    -32.80600392	     -5.59203540	    -24.25573743	      9.67101250	     60.08378204	     -0.37807493	     13.77821721	     20.43627840	     23.75359995	     12.49005533	    -11.10603193
      3.44000000	     -3.29908443	      2.25921755	     10.87544813	     -0.10657516	      1.02397596	      0.00917194	     16.95120412	    -10.29286470	     41.98343789	    -10.74415687	     22.35215989	    -13.61974973	     -7.93662217	    -54.40297007	    116.28439558	    -42.82423812	   -154.36807555	      7.32271932	     -2.98530469	     21.91957268	    -11.20540050	    -32.34403549	     -5.78033824	    -24.54830418	      9.40096660	     60.07449626	     -0.63496310	     14.18616849	     21.69520654	     23.89671557	     12.37141185	    -11.45060084
      3.45000000	     -3.40427604	      2.36088680	     10.96455008	     -0.10691384	      1.02471583	      0.00920041	     16.83151323	    -11.21362682	     41.13682667	    -11.27775352	     21.43497780	    -12.80442750	     -8.31525775	    -54.88803023	    115.85208991	    -44.34095166	   -157.32167452	      7.43432569	     -2.77878141	     21.32069375	    -11.42291018	    -31.30308180	     -5.81849016	    -24.98169662	      8.72405984	     60.76468329	     -1.13626789	     13.95130403	     23.03317120	     25.71969924	     12.53544040	    -12.37334007
      3.46000000	     -3.27372278	      2.39710153	     10.99985750	     -0.10735484	      1.02428485	      0.00946354	     16.67356446	    -11.00095263	     40.60754092	    -10.98077568	     20.99427876	    -12.72628187	     -8.76134137	    -55.02529909	    115.85498438	    -45.59931901	   -157.59349023	      7.74429258	     -2.84088379	     21.06001477	    -11.20549705	    -30.88280919	     -6.11914373	    -25.19689524	      8.52548796	     60.55836140	     -1.26897925	     14.64474112	     24.34656819	     25.69322975	     12.45868966	    -12.67138748
      3.47000000	     -3.16197832	      2.44666440	     11.12305535	     -0.10784714	      1.02398455	      0.00975508	     16.58050226	    -10.89914258	     40.05820833	    -10.72363510	     20.37421535	    -12.59680086	     -9.25454450	    -55.19600182	    115.69277553	    -46.97112151	   -158.00742544	      8.04693892	     -2.85576560	     20.79481219	    -11.05734557	    -30.44371995	     -6.40663069	    -25.51068565	      8.29093097	     60.45074192	     -1.54890984	     15.03821410	     25.75397875	     25.77887471	     12.42560773	    -13.03636325
